<svg xmlns="http://www.w3.org/2000/svg" xmlns:xlink="http://www.w3.org/1999/xlink" width="300" height="45.994" viewBox="0 0 300 45.994">
  <defs>
    <clipPath id="clip-path">
      <rect id="Rectangle_4113" data-name="Rectangle 4113" width="300" height="45.994" fill="none"/>
    </clipPath>
  </defs>
  <g id="Partner_Header_Logo_300x90" transform="translate(0 0)">
    <path id="Path_19639" data-name="Path 19639" d="M64.144,23.465h1.878V3.321H81.015V1.478H64.144Z" transform="translate(105.956 2.442)"/>
    <g id="Group_7979" data-name="Group 7979" transform="translate(0 0)">
      <g id="Group_7978" data-name="Group 7978" clip-path="url(#clip-path)">
        <path id="Path_19640" data-name="Path 19640" d="M53.555,0c-5.829,0-9.2,3.532-9.2,8.969,0,4.5,2.655,8.388,8.322,8.388,4.537,0,15.415-3.111,18.07-3.111A2.675,2.675,0,0,1,73.662,17.1c0,1.713-1.066,3.042-3.333,3.042H44.937v1.848H70.328c3.3,0,5.182-2.14,5.182-4.89a4.466,4.466,0,0,0-4.763-4.667c-3.013,0-13.792,3.108-18.07,3.108-4.437,0-6.473-2.848-6.473-6.574,0-4.466,2.588-7.157,7.351-7.157H113.7V0Z" transform="translate(73.27 0)"/>
        <path id="Path_19641" data-name="Path 19641" d="M53.582,1.478c-3.339,0-5.277,2.071-5.277,4.89A4.487,4.487,0,0,0,53.128,11c3.108,0,13.665-3.079,18.033-3.079,4.407,0,6.478,2.848,6.478,6.577,0,4.466-2.588,7.155-7.351,7.155H44.576v1.814H70.288c5.829,0,9.2-3.527,9.2-8.969,0-4.5-2.655-8.388-8.327-8.388-4.532,0-15.344,3.079-18.033,3.079a2.675,2.675,0,0,1-2.946-2.819c0-1.782,1.1-3.047,3.4-3.047H92.158V23.465h1.909V1.478Z" transform="translate(73.633 2.441)"/>
        <path id="Path_19642" data-name="Path 19642" d="M70.91,12.957C70.91,5.086,76.092,0,84.509,0h10.43c8.417,0,13.6,5.086,13.6,12.957s-5.182,12.949-13.6,12.949H84.509c-8.417,0-13.6-5.084-13.6-12.949m35.747,0c0-6.8-4.338-11.143-11.719-11.143H84.509c-7.574,0-11.719,4.344-11.719,11.143s4.145,11.138,11.719,11.138h10.43c7.38,0,11.719-4.338,11.719-11.138m-31.443,0c0-5.442,3.307-9.035,9.295-9.035h10.43c5.762,0,9.289,3.593,9.289,9.035s-3.5,9.035-9.289,9.035H84.509c-5.988,0-9.295-3.6-9.295-9.035m27.142,0c0-4.376-2.787-7.192-7.417-7.192H84.509c-4.63,0-7.417,2.816-7.417,7.192s2.787,7.187,7.417,7.187h10.43c4.63,0,7.417-2.816,7.417-7.187" transform="translate(117.134 0)"/>
        <path id="Path_19643" data-name="Path 19643" d="M86.138,0h26.33c5.115,0,8.515,3.145,8.515,7.969,0,4.726-3.4,7.865-8.515,7.865h-6.932l3.437,2.952c1.358,1.1,2.132,1.355,4.4,1.355h7v1.848h-7.027a8.108,8.108,0,0,1-6.219-2.3l-6.7-5.667H112.4c4.145,0,6.7-2.363,6.7-6.052,0-3.79-2.559-6.158-6.7-6.158H88.018V25.906h-1.88Zm4.309,3.919h21.761c2.686,0,4.466,1.522,4.466,3.951,0,2.49-1.779,4.012-4.466,4.012H90.447Zm0,10.1h5.407a3.31,3.31,0,0,1,2.562,1.008l6.606,6.054c2.588,2.363,4.37,3.01,8.125,3.01h7.224v1.814h-7.319c-4.243,0-6.412-.777-9.393-3.5l-6.248-5.762a2.619,2.619,0,0,0-2.074-.811h-3.01V25.906h-1.88ZM114.8,7.871c0-1.326-1.066-2.108-2.655-2.108H92.327v4.309h19.815c1.588,0,2.655-.748,2.655-2.2" transform="translate(142.288 0)"/>
        <path id="Path_19644" data-name="Path 19644" d="M100.331,17.683V8.229q0-8.218,8.253-8.229h25.683V1.811H108.621c-4.471,0-6.412,1.976-6.412,6.418v9.454c0,4.4,1.941,6.412,6.412,6.412h25.646v1.811H108.584c-5.569,0-8.253-2.684-8.253-8.223m8.611-13.763h25.325V5.762H108.979c-1.782,0-2.466.65-2.466,2.466v1.843h27.1v1.811H104.6V8.229c0-2.885,1.424-4.309,4.338-4.309M104.6,17.683v-3.66h29.014v1.811h-27.1v1.848c0,1.811.684,2.461,2.466,2.461h25.288v1.848H108.942c-2.914,0-4.338-1.424-4.338-4.309" transform="translate(165.733 0)"/>
        <path id="Path_19645" data-name="Path 19645" d="M101.68.008H74.067a12.961,12.961,0,0,0,0,25.922H95.73V18.147h6.319A9.074,9.074,0,0,0,101.68.008M85.231,7.836H74.006a5.151,5.151,0,0,0,0,10.3h6.02V15.582h-6.02a2.6,2.6,0,1,1,0-5.192H85.231V23.331H74.006a10.345,10.345,0,0,1,0-20.69H85.231Zm16.259,7.746H93.011v7.749H87.787V10.39h13.7a1.277,1.277,0,1,0,0-2.554h-13.7V2.625l13.7.016a6.471,6.471,0,0,1,0,12.941m-2.548,8.2h-.817v-.461h2.119v.461h-.822V25.93h-.48Zm1.787-.461h.5L102,24.609l.758-1.284h.5v2.6h-.477V24.1l-.594,1.016h-.39l-.591-.994V25.93h-.477Zm-42-16.617V25.93H51.3V9.626a.441.441,0,0,0-.758-.3L37.288,24.029a6.919,6.919,0,0,1-7.224,1.8,6.566,6.566,0,0,1-4.394-6.216V9.581a.441.441,0,0,0-.758-.3L9.926,25.93H0L21.525,2A6.773,6.773,0,0,1,33.1,6.707v9.87a.44.44,0,0,0,.758.3l13.4-14.858A6.692,6.692,0,0,1,58.728,6.709" transform="translate(0 0.013)"/>
        <path id="Path_19646" data-name="Path 19646" d="M72.86,14.341a.871.871,0,0,0-1.742,0,.871.871,0,0,0,1.742,0M71.269,21.96h1.413a.079.079,0,0,0,.077-.08V16.163a.079.079,0,0,0-.077-.08H71.269a.082.082,0,0,0-.08.08V21.88a.078.078,0,0,0,.08.08m-19.4-5.8a.08.08,0,0,1,.08-.08h1.4a.082.082,0,0,1,.08.08v5.717a.08.08,0,0,1-.08.08h-1.4a.078.078,0,0,1-.08-.08v-.424a2.137,2.137,0,0,1-1.586.469H50.2a2.891,2.891,0,0,1-2.061-.764,3.015,3.015,0,0,1-.819-2.233,2.748,2.748,0,0,1,2.914-2.952h.024a2.48,2.48,0,0,1,1.612.432Zm-.3,3.8a1.6,1.6,0,0,0,.337-1.05,1.508,1.508,0,1,0-3.015.021,1.431,1.431,0,0,0,1.49,1.533,1.656,1.656,0,0,0,1.188-.5m18.765,2a.08.08,0,0,0,.08-.08V20.6a.078.078,0,0,0-.08-.08c-.143,0-.6,0-.689-.008-.411-.021-.591-.215-.591-.647V17.682h1.281a.08.08,0,0,0,.08-.08V16.184a.08.08,0,0,0-.08-.08H69.06V14.866a.082.082,0,0,0-.08-.08H67.57a.08.08,0,0,0-.08.08v5.007a1.892,1.892,0,0,0,2.066,2.095h.26Zm7.311-1.835a.1.1,0,0,0-.117-.008,1.561,1.561,0,0,1-.965.353,1.5,1.5,0,0,1,0-3,1.578,1.578,0,0,1,.965.353.1.1,0,0,0,.117-.005l.907-.96a.085.085,0,0,0,0-.114,2.677,2.677,0,0,0-2-.785,2.831,2.831,0,0,0-3.023,3.01,2.827,2.827,0,0,0,3.023,3.01,2.689,2.689,0,0,0,2-.785.085.085,0,0,0,0-.114Zm-29.958-5.46V13.291a.1.1,0,0,0-.1-.1H42.494a.1.1,0,0,0-.1.1v8.568a.1.1,0,0,0,.1.1H43.87a.1.1,0,0,0,.1-.1v-3.5a.1.1,0,0,1,.1-.1h2.564a.1.1,0,0,0,.1-.1V16.783a.1.1,0,0,0-.1-.1H44.072a.1.1,0,0,1-.1-.1V14.861a.1.1,0,0,1,.1-.1h3.514a.1.1,0,0,0,.1-.093m17.4,1.49a.082.082,0,0,1,.08-.08h1.405a.082.082,0,0,1,.08.08v5.717a.08.08,0,0,1-.08.08H65.17a.08.08,0,0,1-.08-.08v-.424a2.127,2.127,0,0,1-1.583.469H63.42a2.884,2.884,0,0,1-2.058-.764,3.016,3.016,0,0,1-.822-2.233,2.75,2.75,0,0,1,2.917-2.952h.021a2.476,2.476,0,0,1,1.612.432Zm-.3,3.8a1.583,1.583,0,0,0,.339-1.05,1.509,1.509,0,1,0-3.018.021,1.433,1.433,0,0,0,1.49,1.533,1.615,1.615,0,0,0,1.188-.5M79,20.923a.092.092,0,0,0,.005.109,3.339,3.339,0,0,0,2.543.957,2.343,2.343,0,0,0,2.291-1.167A1.69,1.69,0,0,0,84,20.087c0-1.5-1.294-1.779-2.434-1.859-.9-.056-.9-.374-.9-.475,0-.382.6-.424.872-.424a1.734,1.734,0,0,1,1.2.4.092.092,0,0,0,.117-.005l.8-.931a.086.086,0,0,0-.008-.114,3.022,3.022,0,0,0-2.124-.692,3.226,3.226,0,0,0-1.578.39,1.592,1.592,0,0,0-.827,1.411c0,1.05.835,1.684,2.355,1.8.857.05.965.294.965.512,0,.316-.416.475-.827.475h-.037a2.611,2.611,0,0,1-1.721-.655.077.077,0,0,0-.114.008ZM57.458,16.012c1.448,0,2.413,1.116,2.413,2.779v3.081a.08.08,0,0,1-.08.08H58.381a.078.078,0,0,1-.08-.08V18.8a1.18,1.18,0,0,0-1.188-1.331h-.029a1.3,1.3,0,0,0-1.238,1.294v3.111a.08.08,0,0,1-.08.08H54.361a.08.08,0,0,1-.08-.08V16.163a.082.082,0,0,1,.08-.08h1.363a.079.079,0,0,1,.077.08v.512a2.4,2.4,0,0,1,1.657-.663" transform="translate(70.027 21.788)" fill="#1b212f"/>
        <path id="Path_19647" data-name="Path 19647" d="M46.362,20.016a.052.052,0,0,0,.072-.021l1.779-2.753a.058.058,0,0,0-.037-.085c-2.57-.886-4.975.811-8.642.912a.156.156,0,0,0-.122.239l3.962,6.115a.1.1,0,0,0,.18-.058L42.7,20.483a.065.065,0,0,1,.05-.072c.3-.13,2.551-.886,3.609-.4m4.27-6.539L49.17,15.752a.114.114,0,0,1-.146.042c-3.384-1.705-7.293,1.427-10.743.684a.108.108,0,0,1-.08-.05S36.531,13.858,35.985,13a.158.158,0,0,1,.156-.239,20.516,20.516,0,0,0,2.607.424c5.229.281,8.067-2.859,11.854.117.05.058.066.13.029.172" transform="translate(59.405 19.844)" fill="#dc3023"/>
        <path id="Path_19648" data-name="Path 19648" d="M64.79,21.107H59.224V13.575h5.524v1.172H60.425v2.031H64.58V17.9H60.425v2.023H64.79Z" transform="translate(97.829 22.425)" fill="#1b212f"/>
        <path id="Path_19649" data-name="Path 19649" d="M65.405,14.414h1.339v.029l-1.785,2.57,1.907,2.673v.034H65.527l-1.3-1.928-1.3,1.928H61.6v-.034L63.5,17.013l-1.785-2.57v-.029h1.331l1.175,1.893Z" transform="translate(101.75 23.81)" fill="#1b212f"/>
        <path id="Path_19650" data-name="Path 19650" d="M66.791,18.847a1.693,1.693,0,0,0,1.2-.483,1.512,1.512,0,0,0,.345-.541,1.935,1.935,0,0,0,.122-.692,1.674,1.674,0,0,0-.453-1.223,1.63,1.63,0,0,0-1.23-.469,1.723,1.723,0,0,0-.692.13,1.389,1.389,0,0,0-.517.361,1.949,1.949,0,0,0-.339.538,1.7,1.7,0,0,0-.114.663,1.872,1.872,0,0,0,.122.671,1.825,1.825,0,0,0,.339.546,1.584,1.584,0,0,0,.525.369,1.834,1.834,0,0,0,.689.13m-2.872,3.4v-7.77h1.045l.064.865a1.945,1.945,0,0,1,.822-.727,2.449,2.449,0,0,1,1.05-.247,2.7,2.7,0,0,1,1.087.209,2.754,2.754,0,0,1,.851.575,2.448,2.448,0,0,1,.546.872,3.039,3.039,0,0,1,.194,1.1,3.3,3.3,0,0,1-.186,1.124,2.493,2.493,0,0,1-.533.878,2.362,2.362,0,0,1-.843.575,2.888,2.888,0,0,1-1.116.2,3.123,3.123,0,0,1-.512-.042,2.383,2.383,0,0,1-.517-.151,1.87,1.87,0,0,1-.469-.281,1.41,1.41,0,0,1-.374-.424V22.23Z" transform="translate(105.585 23.742)" fill="#1b212f"/>
        <path id="Path_19651" data-name="Path 19651" d="M70.761,16.635a1.305,1.305,0,0,0-.467-.965,1.794,1.794,0,0,0-1.1-.318,1.821,1.821,0,0,0-1.066.318,1.47,1.47,0,0,0-.583.965Zm-3.233.928a1.408,1.408,0,0,0,.533.973,1.9,1.9,0,0,0,1.2.358,2.779,2.779,0,0,0,.849-.143,1.669,1.669,0,0,0,.692-.424l.719.7a2.049,2.049,0,0,1-.467.4,3.62,3.62,0,0,1-.562.286,3.724,3.724,0,0,1-.618.167,4.033,4.033,0,0,1-.628.056,3.277,3.277,0,0,1-1.188-.2,2.634,2.634,0,0,1-.9-.56,2.559,2.559,0,0,1-.575-.886,3.11,3.11,0,0,1-.2-1.154,2.944,2.944,0,0,1,.2-1.116,2.532,2.532,0,0,1,1.44-1.44,2.988,2.988,0,0,1,1.138-.2,3.162,3.162,0,0,1,1.167.2,2.255,2.255,0,0,1,1.4,1.6,3.807,3.807,0,0,1,.093,1.411Z" transform="translate(109.646 23.742)" fill="#1b212f"/>
        <path id="Path_19652" data-name="Path 19652" d="M69.89,14.49l.072.7a1.377,1.377,0,0,1,.705-.66,2.327,2.327,0,0,1,.851-.159,2.3,2.3,0,0,1,.74.122,1.586,1.586,0,0,1,.578.331l-.5.965a1.715,1.715,0,0,0-.419-.247,1.436,1.436,0,0,0-.517-.077,1.483,1.483,0,0,0-.549.093,1.429,1.429,0,0,0-.453.265,1.171,1.171,0,0,0-.31.453,1.621,1.621,0,0,0-.114.642v2.875H68.861V14.482Z" transform="translate(113.749 23.734)" fill="#1b212f"/>
        <path id="Path_19653" data-name="Path 19653" d="M71.839,21.117H70.731V15.79h1.109Zm-1.246-6.871a.614.614,0,0,1,.215-.512.745.745,0,0,1,.469-.164.732.732,0,0,1,.467.164.608.608,0,0,1,.217.512.624.624,0,0,1-.217.52.743.743,0,0,1-.467.172.723.723,0,0,1-.469-.172.666.666,0,0,1-.215-.52" transform="translate(116.61 22.416)" fill="#1b212f"/>
        <path id="Path_19654" data-name="Path 19654" d="M75.893,16.635a1.305,1.305,0,0,0-.467-.965,1.794,1.794,0,0,0-1.1-.318,1.822,1.822,0,0,0-1.066.318,1.47,1.47,0,0,0-.583.965Zm-3.233.928a1.408,1.408,0,0,0,.533.973,1.9,1.9,0,0,0,1.2.358,2.779,2.779,0,0,0,.849-.143,1.669,1.669,0,0,0,.692-.424l.719.7a2.049,2.049,0,0,1-.467.4,3.618,3.618,0,0,1-.562.286,3.723,3.723,0,0,1-.618.167,4.033,4.033,0,0,1-.628.056,3.277,3.277,0,0,1-1.188-.2,2.634,2.634,0,0,1-.9-.56,2.559,2.559,0,0,1-.575-.886,3.11,3.11,0,0,1-.2-1.154,2.944,2.944,0,0,1,.2-1.116,2.532,2.532,0,0,1,1.44-1.44,2.988,2.988,0,0,1,1.138-.2,3.162,3.162,0,0,1,1.167.2,2.308,2.308,0,0,1,.878.6,2.418,2.418,0,0,1,.525,1,3.807,3.807,0,0,1,.093,1.411Z" transform="translate(118.123 23.742)" fill="#1b212f"/>
        <path id="Path_19655" data-name="Path 19655" d="M78.016,19.788V16.943a1.629,1.629,0,0,0-.374-1.116,1.324,1.324,0,0,0-1.058-.424,1.387,1.387,0,0,0-.6.13,1.438,1.438,0,0,0-.469.345,1.633,1.633,0,0,0-.3.52,1.819,1.819,0,0,0-.109.621v2.771H73.99V14.466H75l.066.78a2.279,2.279,0,0,1,1.785-.872,2.521,2.521,0,0,1,.9.164,2.052,2.052,0,0,1,.719.491,2.329,2.329,0,0,1,.483.8,3.283,3.283,0,0,1,.18,1.1V19.78H78.016Z" transform="translate(122.221 23.742)" fill="#1b212f"/>
        <path id="Path_19656" data-name="Path 19656" d="M81.16,19.117a2.648,2.648,0,0,1-.944.642,3.061,3.061,0,0,1-1.071.186,3.308,3.308,0,0,1-1.082-.18,2.4,2.4,0,0,1-.891-.525,2.53,2.53,0,0,1-.6-.87,3.363,3.363,0,0,1,0-2.421,2.472,2.472,0,0,1,1.49-1.4,3.362,3.362,0,0,1,1.087-.18,2.607,2.607,0,0,1,1.915.793l-.7.721a1.906,1.906,0,0,0-.578-.339,1.953,1.953,0,0,0-.626-.114,1.847,1.847,0,0,0-.668.122,1.75,1.75,0,0,0-.549.345,1.512,1.512,0,0,0-.361.549,1.9,1.9,0,0,0-.127.711,1.855,1.855,0,0,0,.135.743,1.57,1.57,0,0,0,.369.541,1.591,1.591,0,0,0,.538.331,1.953,1.953,0,0,0,.65.106,1.9,1.9,0,0,0,.668-.114,1.451,1.451,0,0,0,.583-.382Z" transform="translate(126.107 23.737)" fill="#1b212f"/>
        <path id="Path_19657" data-name="Path 19657" d="M82.751,16.635a1.307,1.307,0,0,0-.469-.965,1.781,1.781,0,0,0-1.093-.318,1.822,1.822,0,0,0-1.066.318,1.46,1.46,0,0,0-.583.965Zm-3.241.928a1.408,1.408,0,0,0,.533.973,1.852,1.852,0,0,0,1.2.358,2.779,2.779,0,0,0,.849-.143,1.669,1.669,0,0,0,.692-.424l.719.7a2.048,2.048,0,0,1-.467.4,3.619,3.619,0,0,1-.562.286,3.724,3.724,0,0,1-.618.167,4.033,4.033,0,0,1-.628.056,3.277,3.277,0,0,1-1.188-.2,2.634,2.634,0,0,1-.9-.56,2.559,2.559,0,0,1-.575-.886,3.111,3.111,0,0,1-.2-1.154,2.944,2.944,0,0,1,.2-1.116A2.532,2.532,0,0,1,80,14.575a2.988,2.988,0,0,1,1.138-.2,3.162,3.162,0,0,1,1.167.2,2.308,2.308,0,0,1,.878.6,2.417,2.417,0,0,1,.525,1,3.807,3.807,0,0,1,.093,1.411Z" transform="translate(129.44 23.742)" fill="#1b212f"/>
        <path id="Path_19658" data-name="Path 19658" d="M36.733,14.913,35.139,18.5h3.185Zm2.037,4.681H34.693l-.705,1.583H32.707l3.384-7.531h1.318l3.384,7.531H39.517Z" transform="translate(54.028 22.54)" fill="#1b212f"/>
      </g>
    </g>
  </g>
</svg>
